<svg xmlns="http://www.w3.org/2000/svg" xmlns:xlink="http://www.w3.org/1999/xlink" width="2591pt" height="502pt" viewBox="0.00 0.00 2591.00 501.60">
<g id="graph0" class="graph" transform="scale(1 1) rotate(0) translate(4 497.6)">
<title>graphname</title>
<polygon fill="white" stroke="none" points="-4,4 -4,-497.6 2587,-497.6 2587,4 -4,4"/>
<g id="clust2" class="cluster">
<title>cluster_1</title>
<polygon fill="none" stroke="black" points="8,-8 8,-485.6 2575,-485.6 2575,-8 8,-8"/>
<text text-anchor="middle" x="1291.5" y="-469" font-family="Times,serif" font-size="14.00">src</text>
</g>
<g id="clust3" class="cluster">
<title>cluster_2</title>
<polygon fill="none" stroke="black" points="16,-174.8 16,-452.8 1071,-452.8 1071,-174.8 16,-174.8"/>
<text text-anchor="middle" x="543.5" y="-436.2" font-family="Times,serif" font-size="14.00">app</text>
</g>
<g id="clust4" class="cluster">
<title>cluster_3</title>
<polygon fill="none" stroke="black" points="105,-276.6 105,-354.4 183,-354.4 183,-276.6 105,-276.6"/>
<text text-anchor="middle" x="144" y="-337.8" font-family="Times,serif" font-size="14.00">Agreement</text>
</g>
<g id="clust5" class="cluster">
<title>cluster_4</title>
<polygon fill="none" stroke="black" points="315,-276.6 315,-354.4 393,-354.4 393,-276.6 315,-276.6"/>
<text text-anchor="middle" x="354" y="-337.8" font-family="Times,serif" font-size="14.00">addCourse</text>
</g>
<g id="clust6" class="cluster">
<title>cluster_5</title>
<polygon fill="none" stroke="black" points="401,-276.6 401,-354.4 480,-354.4 480,-276.6 401,-276.6"/>
<text text-anchor="middle" x="440.5" y="-337.8" font-family="Times,serif" font-size="14.00">addSession</text>
</g>
<g id="clust7" class="cluster">
<title>cluster_6</title>
<polygon fill="none" stroke="black" points="711,-276.6 711,-354.4 789,-354.4 789,-276.6 711,-276.6"/>
<text text-anchor="middle" x="750" y="-337.8" font-family="Times,serif" font-size="14.00">admin</text>
</g>
<g id="clust8" class="cluster">
<title>cluster_7</title>
<polygon fill="none" stroke="black" points="191,-260.6 191,-420 307,-420 307,-260.6 191,-260.6"/>
<text text-anchor="middle" x="249" y="-403.4" font-family="Times,serif" font-size="14.00">api</text>
</g>
<g id="clust9" class="cluster">
<title>cluster_8</title>
<polygon fill="none" stroke="black" points="199,-268.6 199,-387.2 299,-387.2 299,-268.6 199,-268.6"/>
<text text-anchor="middle" x="249" y="-370.6" font-family="Times,serif" font-size="14.00">auth</text>
</g>
<g id="clust10" class="cluster">
<title>cluster_9</title>
<polygon fill="none" stroke="black" points="207,-276.6 207,-354.4 291,-354.4 291,-276.6 207,-276.6"/>
<text text-anchor="middle" x="249" y="-337.8" font-family="Times,serif" font-size="14.00">[...nextauth]</text>
</g>
<g id="clust11" class="cluster">
<title>cluster_10</title>
<polygon fill="none" stroke="black" points="488,-268.6 488,-387.2 703,-387.2 703,-268.6 488,-268.6"/>
<text text-anchor="middle" x="595.5" y="-370.6" font-family="Times,serif" font-size="14.00">auth</text>
</g>
<g id="clust12" class="cluster">
<title>cluster_11</title>
<polygon fill="none" stroke="black" points="496,-276.6 496,-354.4 609,-354.4 609,-276.6 496,-276.6"/>
<text text-anchor="middle" x="552.5" y="-337.8" font-family="Times,serif" font-size="14.00">change-password</text>
</g>
<g id="clust13" class="cluster">
<title>cluster_12</title>
<polygon fill="none" stroke="black" points="617,-276.6 617,-354.4 695,-354.4 695,-276.6 617,-276.6"/>
<text text-anchor="middle" x="656" y="-337.8" font-family="Times,serif" font-size="14.00">signup</text>
</g>
<g id="clust14" class="cluster">
<title>cluster_13</title>
<polygon fill="none" stroke="black" points="797,-268.6 797,-387.2 891,-387.2 891,-268.6 797,-268.6"/>
<text text-anchor="middle" x="844" y="-370.6" font-family="Times,serif" font-size="14.00">edit</text>
</g>
<g id="clust15" class="cluster">
<title>cluster_14</title>
<polygon fill="none" stroke="black" points="805,-276.6 805,-354.4 883,-354.4 883,-276.6 805,-276.6"/>
<text text-anchor="middle" x="844" y="-337.8" font-family="Times,serif" font-size="14.00">[id]</text>
</g>
<g id="clust16" class="cluster">
<title>cluster_15</title>
<polygon fill="none" stroke="black" points="899,-276.6 899,-354.4 977,-354.4 977,-276.6 899,-276.6"/>
<text text-anchor="middle" x="938" y="-337.8" font-family="Times,serif" font-size="14.00">listCourse</text>
</g>
<g id="clust17" class="cluster">
<title>cluster_16</title>
<polygon fill="none" stroke="black" points="985,-276.6 985,-354.4 1063,-354.4 1063,-276.6 985,-276.6"/>
<text text-anchor="middle" x="1024" y="-337.8" font-family="Times,serif" font-size="14.00">listSession</text>
</g>
<g id="clust18" class="cluster">
<title>cluster_17</title>
<polygon fill="none" stroke="black" points="1079,-89 1079,-252.6 1983,-252.6 1983,-89 1079,-89"/>
<text text-anchor="middle" x="1531" y="-236" font-family="Times,serif" font-size="14.00">components</text>
</g>
<g id="clust19" class="cluster">
<title>cluster_18</title>
<polygon fill="none" stroke="black" points="1991,-16 1991,-166.8 2495,-166.8 2495,-16 1991,-16"/>
<text text-anchor="middle" x="2243" y="-150.2" font-family="Times,serif" font-size="14.00">lib</text>
</g>
<!-- src/app/api/auth/[...nextauth]/route.ts -->
<g id="node1" class="node">
<title>src/app/api/auth/[...nextauth]/route.ts</title>
<polygon fill="none" stroke="black" points="225.2,-285.1 225.2,-321.1 282.8,-321.1 282.8,-285.1 225.2,-285.1"/>
<text text-anchor="middle" x="254" y="-298.9" font-family="Times,serif" font-size="14.00">route.ts</text>
</g>
<!-- src/lib/authOptions.ts -->
<g id="node2" class="node">
<title>src/lib/authOptions.ts</title>
<polygon fill="none" stroke="black" points="2255.36,-97.5 2255.36,-133.5 2352.64,-133.5 2352.64,-97.5 2255.36,-97.5"/>
<text text-anchor="middle" x="2304" y="-111.3" font-family="Times,serif" font-size="14.00">authOptions.ts</text>
</g>
<!-- src/app/api/auth/[...nextauth]/route.ts&#45;&gt;src/lib/authOptions.ts -->
<g id="edge1" class="edge">
<title>src/app/api/auth/[...nextauth]/route.ts-&gt;src/lib/authOptions.ts</title>
<path fill="none" stroke="#1859ea" d="M271.58,-284.8C282.09,-275.7 296.23,-265.45 311,-260.6 333.12,-253.34 1969.27,-267.68 1987,-252.6 2013.7,-229.88 1973.62,-197.89 2000,-174.8 2020.58,-156.79 2220.54,-176.78 2246,-166.8 2259.44,-161.53 2271.88,-151.72 2281.77,-142.16"/>
<polygon fill="#1859ea" stroke="#1859ea" points="2284.25,-144.63 2288.71,-135.02 2279.23,-139.75 2284.25,-144.63"/>
</g>
<!-- src/lib/prisma.ts -->
<g id="node3" class="node">
<title>src/lib/prisma.ts</title>
<polygon fill="none" stroke="black" points="2420.53,-24.5 2420.53,-60.5 2487.47,-60.5 2487.47,-24.5 2420.53,-24.5"/>
<text text-anchor="middle" x="2454" y="-38.3" font-family="Times,serif" font-size="14.00">prisma.ts</text>
</g>
<!-- src/lib/authOptions.ts&#45;&gt;src/lib/prisma.ts -->
<g id="edge2" class="edge">
<title>src/lib/authOptions.ts-&gt;src/lib/prisma.ts</title>
<path fill="none" stroke="#1dc057" d="M2340.69,-97.13C2361.66,-87.21 2388.08,-74.7 2410.14,-64.26"/>
<polygon fill="#1dc057" stroke="#1dc057" points="2411.34,-67.56 2418.88,-60.12 2408.35,-61.24 2411.34,-67.56"/>
</g>
<!-- src/app/addCourse/page.tsx -->
<g id="node4" class="node">
<title>src/app/addCourse/page.tsx</title>
<polygon fill="none" stroke="black" points="322.87,-285.1 322.87,-321.1 385.13,-321.1 385.13,-285.1 322.87,-285.1"/>
<text text-anchor="middle" x="354" y="-298.9" font-family="Times,serif" font-size="14.00">page.tsx</text>
</g>
<!-- src/app/addCourse/page.tsx&#45;&gt;src/lib/authOptions.ts -->
<g id="edge3" class="edge">
<title>src/app/addCourse/page.tsx-&gt;src/lib/authOptions.ts</title>
<path fill="none" stroke="#363ead" d="M366.64,-284.67C374.29,-275.66 384.89,-265.53 397,-260.6 438.25,-243.82 1958.31,-268.24 2000,-252.6 2049.5,-234.03 2040.94,-194.51 2090,-174.8 2122.21,-161.86 2213.8,-179.77 2246,-166.8 2259.39,-161.41 2271.83,-151.58 2281.72,-142.03"/>
<polygon fill="#363ead" stroke="#363ead" points="2284.19,-144.51 2288.67,-134.91 2279.18,-139.62 2284.19,-144.51"/>
</g>
<!-- src/lib/page&#45;protection.ts -->
<g id="node5" class="node">
<title>src/lib/page-protection.ts</title>
<polygon fill="none" stroke="black" points="2370.66,-97.5 2370.66,-133.5 2487.34,-133.5 2487.34,-97.5 2370.66,-97.5"/>
<text text-anchor="middle" x="2429" y="-111.3" font-family="Times,serif" font-size="14.00">page-protection.ts</text>
</g>
<!-- src/app/addCourse/page.tsx&#45;&gt;src/lib/page&#45;protection.ts -->
<g id="edge4" class="edge">
<title>src/app/addCourse/page.tsx-&gt;src/lib/page-protection.ts</title>
<path fill="none" stroke="#363ead" d="M366.64,-284.67C374.28,-275.65 384.89,-265.52 397,-260.6 439.53,-243.3 2009.37,-273.98 2050,-252.6 2087.25,-233 2067.01,-194.89 2104,-174.8 2129.2,-161.11 2334.94,-176.3 2362,-166.8 2377.31,-161.43 2392,-151.18 2403.7,-141.34"/>
<polygon fill="#363ead" stroke="#363ead" points="2405.73,-144.22 2410.9,-134.97 2401.09,-138.98 2405.73,-144.22"/>
</g>
<!-- src/components/AddStuffForm.tsx -->
<g id="node6" class="node">
<title>src/components/AddStuffForm.tsx</title>
<polygon fill="none" stroke="black" points="1461.86,-183.3 1461.86,-219.3 1580.14,-219.3 1580.14,-183.3 1461.86,-183.3"/>
<text text-anchor="middle" x="1521" y="-197.1" font-family="Times,serif" font-size="14.00">AddStuffForm.tsx</text>
</g>
<!-- src/app/addCourse/page.tsx&#45;&gt;src/components/AddStuffForm.tsx -->
<g id="edge5" class="edge">
<title>src/app/addCourse/page.tsx-&gt;src/components/AddStuffForm.tsx</title>
<path fill="none" stroke="#363ead" d="M366.64,-284.69C374.29,-275.67 384.9,-265.54 397,-260.6 424.16,-249.51 1425.18,-261.89 1453,-252.6 1468.65,-247.38 1483.66,-237.05 1495.58,-227.1"/>
<polygon fill="#363ead" stroke="#363ead" points="1497.71,-229.89 1502.91,-220.66 1493.09,-224.63 1497.71,-229.89"/>
</g>
<!-- src/lib/dbActions.ts -->
<g id="node7" class="node">
<title>src/lib/dbActions.ts</title>
<polygon fill="none" stroke="black" points="2150.81,-97.5 2150.81,-133.5 2237.19,-133.5 2237.19,-97.5 2150.81,-97.5"/>
<text text-anchor="middle" x="2194" y="-111.3" font-family="Times,serif" font-size="14.00">dbActions.ts</text>
</g>
<!-- src/components/AddStuffForm.tsx&#45;&gt;src/lib/dbActions.ts -->
<g id="edge6" class="edge">
<title>src/components/AddStuffForm.tsx-&gt;src/lib/dbActions.ts</title>
<path fill="none" stroke="#f82ffd" d="M1560.61,-182.84C1569.77,-179.55 1579.58,-176.58 1589,-174.8 1619.19,-169.1 2113.6,-178.53 2142,-166.8 2154.44,-161.66 2165.58,-152.01 2174.33,-142.52"/>
<polygon fill="#f82ffd" stroke="#f82ffd" points="2176.81,-145 2180.67,-135.14 2171.5,-140.44 2176.81,-145"/>
</g>
<!-- src/components/LoadingSpinner.tsx -->
<g id="node8" class="node">
<title>src/components/LoadingSpinner.tsx</title>
<polygon fill="none" stroke="black" points="1457.98,-97.5 1457.98,-133.5 1584.02,-133.5 1584.02,-97.5 1457.98,-97.5"/>
<text text-anchor="middle" x="1521" y="-111.3" font-family="Times,serif" font-size="14.00">LoadingSpinner.tsx</text>
</g>
<!-- src/components/AddStuffForm.tsx&#45;&gt;src/components/LoadingSpinner.tsx -->
<g id="edge7" class="edge">
<title>src/components/AddStuffForm.tsx-&gt;src/components/LoadingSpinner.tsx</title>
<path fill="none" stroke="#f82ffd" d="M1521,-182.94C1521,-172.04 1521,-157.72 1521,-145.17"/>
<polygon fill="#f82ffd" stroke="#f82ffd" points="1524.5,-145.35 1521,-135.35 1517.5,-145.35 1524.5,-145.35"/>
</g>
<!-- src/lib/validationSchemas.ts -->
<g id="node9" class="node">
<title>src/lib/validationSchemas.ts</title>
<polygon fill="none" stroke="black" points="1998.71,-97.5 1998.71,-133.5 2133.29,-133.5 2133.29,-97.5 1998.71,-97.5"/>
<text text-anchor="middle" x="2066" y="-111.3" font-family="Times,serif" font-size="14.00">validationSchemas.ts</text>
</g>
<!-- src/components/AddStuffForm.tsx&#45;&gt;src/lib/validationSchemas.ts -->
<g id="edge8" class="edge">
<title>src/components/AddStuffForm.tsx-&gt;src/lib/validationSchemas.ts</title>
<path fill="none" stroke="#f82ffd" d="M1560.62,-182.88C1569.77,-179.58 1579.59,-176.6 1589,-174.8 1632.44,-166.47 1944.66,-179.6 1987,-166.8 2004.83,-161.41 2022.52,-150.77 2036.63,-140.66"/>
<polygon fill="#f82ffd" stroke="#f82ffd" points="2038.66,-143.51 2044.57,-134.72 2034.47,-137.91 2038.66,-143.51"/>
</g>
<!-- src/lib/dbActions.ts&#45;&gt;src/lib/prisma.ts -->
<g id="edge9" class="edge">
<title>src/lib/dbActions.ts-&gt;src/lib/prisma.ts</title>
<path fill="none" stroke="#a5e4fa" d="M2226.5,-97.09C2232.85,-94.11 2239.54,-91.25 2246,-89 2300.67,-69.93 2366.31,-57.16 2409.03,-50.12"/>
<polygon fill="#a5e4fa" stroke="#a5e4fa" points="2409.36,-53.61 2418.68,-48.57 2408.25,-46.7 2409.36,-53.61"/>
</g>
<!-- src/app/addSession/page.tsx -->
<g id="node10" class="node">
<title>src/app/addSession/page.tsx</title>
<polygon fill="none" stroke="black" points="409.87,-285.1 409.87,-321.1 472.13,-321.1 472.13,-285.1 409.87,-285.1"/>
<text text-anchor="middle" x="441" y="-298.9" font-family="Times,serif" font-size="14.00">page.tsx</text>
</g>
<!-- src/app/addSession/page.tsx&#45;&gt;src/lib/authOptions.ts -->
<g id="edge10" class="edge">
<title>src/app/addSession/page.tsx-&gt;src/lib/authOptions.ts</title>
<path fill="none" stroke="#94a35f" d="M456.62,-284.62C465.89,-275.58 478.46,-265.45 492,-260.6 533,-245.91 2019.44,-268.48 2060,-252.6 2107.69,-233.93 2098.03,-195.22 2145,-174.8 2186.3,-156.85 2204.47,-184.2 2246,-166.8 2259.31,-161.22 2271.74,-151.37 2281.65,-141.85"/>
<polygon fill="#94a35f" stroke="#94a35f" points="2284.1,-144.35 2288.61,-134.76 2279.1,-139.44 2284.1,-144.35"/>
</g>
<!-- src/app/addSession/page.tsx&#45;&gt;src/lib/page&#45;protection.ts -->
<g id="edge11" class="edge">
<title>src/app/addSession/page.tsx-&gt;src/lib/page-protection.ts</title>
<path fill="none" stroke="#94a35f" d="M456.62,-284.62C465.89,-275.58 478.46,-265.45 492,-260.6 534.26,-245.46 2064.83,-264.89 2108,-252.6 2171.67,-234.48 2171.89,-194.76 2235,-174.8 2288.92,-157.75 2308.94,-186.38 2362,-166.8 2377.22,-161.18 2391.9,-150.91 2403.62,-141.1"/>
<polygon fill="#94a35f" stroke="#94a35f" points="2405.62,-144.01 2410.83,-134.78 2401,-138.75 2405.62,-144.01"/>
</g>
<!-- src/components/AddSessionForm.tsx -->
<g id="node11" class="node">
<title>src/components/AddSessionForm.tsx</title>
<polygon fill="none" stroke="black" points="1598.46,-183.3 1598.46,-219.3 1731.54,-219.3 1731.54,-183.3 1598.46,-183.3"/>
<text text-anchor="middle" x="1665" y="-197.1" font-family="Times,serif" font-size="14.00">AddSessionForm.tsx</text>
</g>
<!-- src/app/addSession/page.tsx&#45;&gt;src/components/AddSessionForm.tsx -->
<g id="edge12" class="edge">
<title>src/app/addSession/page.tsx-&gt;src/components/AddSessionForm.tsx</title>
<path fill="none" stroke="#94a35f" d="M456.63,-284.63C465.9,-275.6 478.47,-265.47 492,-260.6 549.35,-239.98 1530.7,-270.38 1589,-252.6 1606.34,-247.31 1623.38,-236.68 1636.92,-226.55"/>
<polygon fill="#94a35f" stroke="#94a35f" points="1638.78,-229.54 1644.5,-220.62 1634.46,-224.03 1638.78,-229.54"/>
</g>
<!-- src/components/AddSessionForm.tsx&#45;&gt;src/lib/dbActions.ts -->
<g id="edge13" class="edge">
<title>src/components/AddSessionForm.tsx-&gt;src/lib/dbActions.ts</title>
<path fill="none" stroke="#3fe4ba" d="M1708.83,-182.89C1718.91,-179.59 1729.71,-176.61 1740,-174.8 1762,-170.94 2121.38,-175.38 2142,-166.8 2154.43,-161.63 2165.57,-151.97 2174.31,-142.49"/>
<polygon fill="#3fe4ba" stroke="#3fe4ba" points="2176.79,-144.97 2180.66,-135.11 2171.48,-140.41 2176.79,-144.97"/>
</g>
<!-- src/components/AddSessionForm.tsx&#45;&gt;src/components/LoadingSpinner.tsx -->
<g id="edge14" class="edge">
<title>src/components/AddSessionForm.tsx-&gt;src/components/LoadingSpinner.tsx</title>
<path fill="none" stroke="#3fe4ba" d="M1635.16,-182.94C1613.54,-170.35 1584.08,-153.21 1560.5,-139.49"/>
<polygon fill="#3fe4ba" stroke="#3fe4ba" points="1562.51,-136.61 1552.11,-134.6 1558.99,-142.66 1562.51,-136.61"/>
</g>
<!-- src/components/AddSessionForm.tsx&#45;&gt;src/lib/validationSchemas.ts -->
<g id="edge15" class="edge">
<title>src/components/AddSessionForm.tsx-&gt;src/lib/validationSchemas.ts</title>
<path fill="none" stroke="#3fe4ba" d="M1709.24,-182.85C1719.21,-179.6 1729.85,-176.65 1740,-174.8 1794.03,-164.96 1934.53,-183.01 1987,-166.8 2004.67,-161.34 2022.24,-150.8 2036.3,-140.78"/>
<polygon fill="#3fe4ba" stroke="#3fe4ba" points="2038.28,-143.66 2044.22,-134.89 2034.11,-138.04 2038.28,-143.66"/>
</g>
<!-- src/app/admin/page.tsx -->
<g id="node12" class="node">
<title>src/app/admin/page.tsx</title>
<polygon fill="none" stroke="black" points="718.87,-285.1 718.87,-321.1 781.13,-321.1 781.13,-285.1 718.87,-285.1"/>
<text text-anchor="middle" x="750" y="-298.9" font-family="Times,serif" font-size="14.00">page.tsx</text>
</g>
<!-- src/app/admin/page.tsx&#45;&gt;src/lib/authOptions.ts -->
<g id="edge19" class="edge">
<title>src/app/admin/page.tsx-&gt;src/lib/authOptions.ts</title>
<path fill="none" stroke="#f61e68" d="M765.62,-284.62C774.9,-275.59 787.46,-265.46 801,-260.6 837.45,-247.53 2160.14,-269.47 2195,-252.6 2241.52,-230.09 2274.46,-177.09 2291.25,-144.26"/>
<polygon fill="#f61e68" stroke="#f61e68" points="2294.37,-145.85 2295.66,-135.34 2288.09,-142.76 2294.37,-145.85"/>
</g>
<!-- src/app/admin/page.tsx&#45;&gt;src/lib/prisma.ts -->
<g id="edge17" class="edge">
<title>src/app/admin/page.tsx-&gt;src/lib/prisma.ts</title>
<path fill="none" stroke="#f61e68" d="M765.62,-284.62C774.89,-275.58 787.46,-265.45 801,-260.6 820.43,-253.64 2269.05,-262.79 2287,-252.6 2322.13,-232.65 2299.32,-195.51 2334,-174.8 2349.47,-165.56 2483.57,-179.85 2496,-166.8 2519.84,-141.75 2508.59,-121.2 2496,-89 2493.16,-81.73 2488.55,-74.93 2483.41,-68.91"/>
<polygon fill="#f61e68" stroke="#f61e68" points="2486.1,-66.66 2476.68,-61.8 2481.01,-71.47 2486.1,-66.66"/>
</g>
<!-- src/app/admin/page.tsx&#45;&gt;src/lib/page&#45;protection.ts -->
<g id="edge18" class="edge">
<title>src/app/admin/page.tsx-&gt;src/lib/page-protection.ts</title>
<path fill="none" stroke="#f61e68" d="M765.62,-284.62C774.89,-275.58 787.46,-265.45 801,-260.6 838.6,-247.12 2201.81,-267.17 2239,-252.6 2286.68,-233.92 2278.44,-198.19 2324,-174.8 2339.35,-166.92 2346.28,-173.93 2362,-166.8 2376.22,-160.35 2390.29,-150.47 2401.84,-141.17"/>
<polygon fill="#f61e68" stroke="#f61e68" points="2403.93,-143.98 2409.35,-134.88 2399.44,-138.61 2403.93,-143.98"/>
</g>
<!-- src/components/StuffItem.tsx -->
<g id="node13" class="node">
<title>src/components/StuffItem.tsx</title>
<polygon fill="none" stroke="black" points="1885.25,-183.3 1885.25,-219.3 1974.75,-219.3 1974.75,-183.3 1885.25,-183.3"/>
<text text-anchor="middle" x="1930" y="-197.1" font-family="Times,serif" font-size="14.00">StuffItem.tsx</text>
</g>
<!-- src/app/admin/page.tsx&#45;&gt;src/components/StuffItem.tsx -->
<g id="edge16" class="edge">
<title>src/app/admin/page.tsx-&gt;src/components/StuffItem.tsx</title>
<path fill="none" stroke="#f61e68" d="M765.63,-284.63C774.9,-275.6 787.47,-265.47 801,-260.6 857.2,-240.39 1820.51,-274.68 1876,-252.6 1888.85,-247.49 1900.47,-237.74 1909.6,-228.18"/>
<polygon fill="#f61e68" stroke="#f61e68" points="1912.21,-230.51 1916.25,-220.72 1906.99,-225.85 1912.21,-230.51"/>
</g>
<!-- src/app/Agreement/page.tsx -->
<g id="node14" class="node">
<title>src/app/Agreement/page.tsx</title>
<polygon fill="none" stroke="black" points="112.87,-285.1 112.87,-321.1 175.13,-321.1 175.13,-285.1 112.87,-285.1"/>
<text text-anchor="middle" x="144" y="-298.9" font-family="Times,serif" font-size="14.00">page.tsx</text>
</g>
<!-- src/components/PanicSessionAgreement.tsx -->
<g id="node15" class="node">
<title>src/components/PanicSessionAgreement.tsx</title>
<polygon fill="none" stroke="black" points="1272.04,-183.3 1272.04,-219.3 1443.96,-219.3 1443.96,-183.3 1272.04,-183.3"/>
<text text-anchor="middle" x="1358" y="-197.1" font-family="Times,serif" font-size="14.00">PanicSessionAgreement.tsx</text>
</g>
<!-- src/app/Agreement/page.tsx&#45;&gt;src/components/PanicSessionAgreement.tsx -->
<g id="edge20" class="edge">
<title>src/app/Agreement/page.tsx-&gt;src/components/PanicSessionAgreement.tsx</title>
<path fill="none" stroke="#165f62" d="M162.31,-284.81C173.22,-275.71 187.85,-265.46 203,-260.6 259.13,-242.6 1206.88,-267.15 1264,-252.6 1285.14,-247.21 1306.74,-236.13 1323.9,-225.73"/>
<polygon fill="#165f62" stroke="#165f62" points="1325.56,-228.82 1332.16,-220.54 1321.83,-222.89 1325.56,-228.82"/>
</g>
<!-- src/app/auth/change&#45;password/page.tsx -->
<g id="node16" class="node">
<title>src/app/auth/change-password/page.tsx</title>
<polygon fill="none" stroke="black" points="538.87,-285.1 538.87,-321.1 601.13,-321.1 601.13,-285.1 538.87,-285.1"/>
<text text-anchor="middle" x="570" y="-298.9" font-family="Times,serif" font-size="14.00">page.tsx</text>
</g>
<!-- src/app/auth/change&#45;password/page.tsx&#45;&gt;src/lib/dbActions.ts -->
<g id="edge21" class="edge">
<title>src/app/auth/change-password/page.tsx-&gt;src/lib/dbActions.ts</title>
<path fill="none" stroke="#d73009" d="M582.64,-284.68C590.29,-275.66 600.89,-265.53 613,-260.6 648.35,-246.2 1950.07,-262.25 1987,-252.6 2063.18,-232.69 2078.71,-213.64 2142,-166.8 2151.99,-159.4 2162.04,-150.2 2170.59,-141.7"/>
<polygon fill="#d73009" stroke="#d73009" points="2173.04,-144.2 2177.54,-134.61 2168.04,-139.31 2173.04,-144.2"/>
</g>
<!-- src/app/auth/change&#45;password/page.tsx&#45;&gt;src/components/LoadingSpinner.tsx -->
<g id="edge22" class="edge">
<title>src/app/auth/change-password/page.tsx-&gt;src/components/LoadingSpinner.tsx</title>
<path fill="none" stroke="#d73009" d="M582.7,-284.84C590.37,-275.87 600.98,-265.74 613,-260.6 633.55,-251.82 791.95,-256.23 814,-252.6 934.7,-232.73 958.33,-200.15 1078,-174.8 1206.14,-147.66 1357.96,-130.96 1446.48,-122.73"/>
<polygon fill="#d73009" stroke="#d73009" points="1446.61,-126.24 1456.24,-121.84 1445.97,-119.27 1446.61,-126.24"/>
</g>
<!-- src/app/auth/signup/page.tsx -->
<g id="node17" class="node">
<title>src/app/auth/signup/page.tsx</title>
<polygon fill="none" stroke="black" points="624.87,-285.1 624.87,-321.1 687.13,-321.1 687.13,-285.1 624.87,-285.1"/>
<text text-anchor="middle" x="656" y="-298.9" font-family="Times,serif" font-size="14.00">page.tsx</text>
</g>
<!-- src/app/auth/signup/page.tsx&#45;&gt;src/lib/dbActions.ts -->
<g id="edge23" class="edge">
<title>src/app/auth/signup/page.tsx-&gt;src/lib/dbActions.ts</title>
<path fill="none" stroke="#21e04a" d="M671.62,-284.62C680.89,-275.58 693.46,-265.45 707,-260.6 726.22,-253.71 2161.73,-266.15 2177,-252.6 2206.69,-226.25 2204.92,-176.5 2200.07,-145.01"/>
<polygon fill="#21e04a" stroke="#21e04a" points="2203.56,-144.65 2198.39,-135.41 2196.67,-145.86 2203.56,-144.65"/>
</g>
<!-- src/app/edit/[id]/page.tsx -->
<g id="node18" class="node">
<title>src/app/edit/[id]/page.tsx</title>
<polygon fill="none" stroke="black" points="812.87,-285.1 812.87,-321.1 875.13,-321.1 875.13,-285.1 812.87,-285.1"/>
<text text-anchor="middle" x="844" y="-298.9" font-family="Times,serif" font-size="14.00">page.tsx</text>
</g>
<!-- src/app/edit/[id]/page.tsx&#45;&gt;src/lib/authOptions.ts -->
<g id="edge24" class="edge">
<title>src/app/edit/[id]/page.tsx-&gt;src/lib/authOptions.ts</title>
<path fill="none" stroke="#931a17" d="M859.62,-284.62C868.9,-275.59 881.46,-265.46 895,-260.6 912.56,-254.3 2222.22,-262.55 2238,-252.6 2275.59,-228.9 2292.32,-177.06 2299.35,-144.64"/>
<polygon fill="#931a17" stroke="#931a17" points="2302.72,-145.64 2301.22,-135.15 2295.85,-144.28 2302.72,-145.64"/>
</g>
<!-- src/app/edit/[id]/page.tsx&#45;&gt;src/lib/prisma.ts -->
<g id="edge26" class="edge">
<title>src/app/edit/[id]/page.tsx-&gt;src/lib/prisma.ts</title>
<path fill="none" stroke="#931a17" d="M859.62,-284.62C868.89,-275.58 881.46,-265.46 895,-260.6 932.5,-247.15 2292.96,-269.57 2329,-252.6 2369.76,-233.4 2353.86,-195.27 2394,-174.8 2417.22,-162.96 2493.21,-185.85 2511,-166.8 2534.6,-141.53 2526,-120.16 2511,-89 2507.14,-80.98 2501.1,-73.93 2494.37,-67.93"/>
<polygon fill="#931a17" stroke="#931a17" points="2496.76,-65.36 2486.77,-61.83 2492.38,-70.82 2496.76,-65.36"/>
</g>
<!-- src/app/edit/[id]/page.tsx&#45;&gt;src/lib/page&#45;protection.ts -->
<g id="edge25" class="edge">
<title>src/app/edit/[id]/page.tsx-&gt;src/lib/page-protection.ts</title>
<path fill="none" stroke="#931a17" d="M859.62,-284.62C868.9,-275.59 881.46,-265.46 895,-260.6 930.93,-247.71 2233.22,-265.88 2269,-252.6 2328.69,-230.45 2381.38,-175.21 2408.86,-142.32"/>
<polygon fill="#931a17" stroke="#931a17" points="2411.34,-144.81 2414.96,-134.85 2405.92,-140.38 2411.34,-144.81"/>
</g>
<!-- src/components/EditStuffForm.tsx -->
<g id="node19" class="node">
<title>src/components/EditStuffForm.tsx</title>
<polygon fill="none" stroke="black" points="1749.25,-183.3 1749.25,-219.3 1866.75,-219.3 1866.75,-183.3 1749.25,-183.3"/>
<text text-anchor="middle" x="1808" y="-197.1" font-family="Times,serif" font-size="14.00">EditStuffForm.tsx</text>
</g>
<!-- src/app/edit/[id]/page.tsx&#45;&gt;src/components/EditStuffForm.tsx -->
<g id="edge27" class="edge">
<title>src/app/edit/[id]/page.tsx-&gt;src/components/EditStuffForm.tsx</title>
<path fill="none" stroke="#931a17" d="M859.63,-284.64C868.9,-275.61 881.47,-265.48 895,-260.6 939.21,-244.65 1696.48,-267.68 1741,-252.6 1756.48,-247.36 1771.28,-237.02 1783.01,-227.08"/>
<polygon fill="#931a17" stroke="#931a17" points="1785.08,-229.92 1790.22,-220.65 1780.42,-224.7 1785.08,-229.92"/>
</g>
<!-- src/components/EditStuffForm.tsx&#45;&gt;src/lib/dbActions.ts -->
<g id="edge29" class="edge">
<title>src/components/EditStuffForm.tsx-&gt;src/lib/dbActions.ts</title>
<path fill="none" stroke="#c0815d" d="M1848,-182.82C1857.04,-179.57 1866.72,-176.63 1876,-174.8 1905.01,-169.09 2114.76,-178.3 2142,-166.8 2154.4,-161.56 2165.54,-151.89 2174.29,-142.42"/>
<polygon fill="#c0815d" stroke="#c0815d" points="2176.76,-144.92 2180.64,-135.06 2171.46,-140.35 2176.76,-144.92"/>
</g>
<!-- src/components/EditStuffForm.tsx&#45;&gt;src/lib/validationSchemas.ts -->
<g id="edge28" class="edge">
<title>src/components/EditStuffForm.tsx-&gt;src/lib/validationSchemas.ts</title>
<path fill="none" stroke="#c0815d" d="M1848.78,-182.85C1857.62,-179.69 1867.01,-176.77 1876,-174.8 1924.32,-164.23 1940.04,-182.33 1987,-166.8 2004.43,-161.03 2021.86,-150.56 2035.89,-140.67"/>
<polygon fill="#c0815d" stroke="#c0815d" points="2037.81,-143.6 2043.8,-134.86 2033.67,-137.96 2037.81,-143.6"/>
</g>
<!-- src/app/layout.tsx -->
<g id="node20" class="node">
<title>src/app/layout.tsx</title>
<polygon fill="none" stroke="black" points="23.58,-285.1 23.58,-321.1 94.42,-321.1 94.42,-285.1 23.58,-285.1"/>
<text text-anchor="middle" x="59" y="-298.9" font-family="Times,serif" font-size="14.00">layout.tsx</text>
</g>
<!-- src/components/Footer.tsx -->
<g id="node21" class="node">
<title>src/components/Footer.tsx</title>
<polygon fill="none" stroke="black" points="1086.81,-183.3 1086.81,-219.3 1159.19,-219.3 1159.19,-183.3 1086.81,-183.3"/>
<text text-anchor="middle" x="1123" y="-197.1" font-family="Times,serif" font-size="14.00">Footer.tsx</text>
</g>
<!-- src/app/layout.tsx&#45;&gt;src/components/Footer.tsx -->
<g id="edge30" class="edge">
<title>src/app/layout.tsx-&gt;src/components/Footer.tsx</title>
<path fill="none" stroke="#d34aec" d="M71.26,-284.7C78.71,-275.69 89.07,-265.56 101,-260.6 150.97,-239.84 1025.34,-274.1 1075,-252.6 1086.75,-247.51 1097.01,-238 1104.99,-228.61"/>
<polygon fill="#d34aec" stroke="#d34aec" points="1107.56,-231.01 1110.98,-220.98 1102.05,-226.68 1107.56,-231.01"/>
</g>
<!-- src/components/Navbar.tsx -->
<g id="node22" class="node">
<title>src/components/Navbar.tsx</title>
<polygon fill="none" stroke="black" points="1177.48,-183.3 1177.48,-219.3 1254.52,-219.3 1254.52,-183.3 1177.48,-183.3"/>
<text text-anchor="middle" x="1216" y="-197.1" font-family="Times,serif" font-size="14.00">Navbar.tsx</text>
</g>
<!-- src/app/layout.tsx&#45;&gt;src/components/Navbar.tsx -->
<g id="edge31" class="edge">
<title>src/app/layout.tsx-&gt;src/components/Navbar.tsx</title>
<path fill="none" stroke="#d34aec" d="M71.26,-284.69C78.71,-275.68 89.07,-265.55 101,-260.6 155.75,-237.87 1113.59,-276.13 1168,-252.6 1179.75,-247.52 1190.01,-238.01 1197.99,-228.61"/>
<polygon fill="#d34aec" stroke="#d34aec" points="1200.56,-231.01 1203.98,-220.98 1195.06,-226.69 1200.56,-231.01"/>
</g>
<!-- src/app/providers.tsx -->
<g id="node23" class="node">
<title>src/app/providers.tsx</title>
<polygon fill="none" stroke="black" points="23.64,-183.3 23.64,-219.3 112.36,-219.3 112.36,-183.3 23.64,-183.3"/>
<text text-anchor="middle" x="68" y="-197.1" font-family="Times,serif" font-size="14.00">providers.tsx</text>
</g>
<!-- src/app/layout.tsx&#45;&gt;src/app/providers.tsx -->
<g id="edge32" class="edge">
<title>src/app/layout.tsx-&gt;src/app/providers.tsx</title>
<path fill="none" stroke="#d34aec" d="M60.57,-284.72C61.91,-269.83 63.87,-248.11 65.44,-230.71"/>
<polygon fill="#d34aec" stroke="#d34aec" points="68.9,-231.27 66.31,-220.99 61.93,-230.64 68.9,-231.27"/>
</g>
<!-- src/app/listCourse/page.tsx -->
<g id="node24" class="node">
<title>src/app/listCourse/page.tsx</title>
<polygon fill="none" stroke="black" points="906.87,-285.1 906.87,-321.1 969.13,-321.1 969.13,-285.1 906.87,-285.1"/>
<text text-anchor="middle" x="938" y="-298.9" font-family="Times,serif" font-size="14.00">page.tsx</text>
</g>
<!-- src/app/listCourse/page.tsx&#45;&gt;src/lib/authOptions.ts -->
<g id="edge36" class="edge">
<title>src/app/listCourse/page.tsx-&gt;src/lib/authOptions.ts</title>
<path fill="none" stroke="#092b60" d="M950.64,-284.68C958.29,-275.66 968.89,-265.53 981,-260.6 998.66,-253.41 2340.55,-266.12 2354,-252.6 2378.38,-228.08 2366,-207.23 2354,-174.8 2349.5,-162.64 2341.21,-151.31 2332.65,-141.93"/>
<polygon fill="#092b60" stroke="#092b60" points="2335.36,-139.69 2325.87,-134.98 2330.35,-144.58 2335.36,-139.69"/>
</g>
<!-- src/app/listCourse/page.tsx&#45;&gt;src/lib/prisma.ts -->
<g id="edge33" class="edge">
<title>src/app/listCourse/page.tsx-&gt;src/lib/prisma.ts</title>
<path fill="none" stroke="#092b60" d="M950.64,-284.68C958.29,-275.66 968.89,-265.53 981,-260.6 1017.4,-245.78 2360.92,-270.33 2396,-252.6 2434.49,-233.15 2416.5,-196.11 2454,-174.8 2468.96,-166.3 2519.48,-179.58 2531,-166.8 2554.15,-141.12 2548.14,-119.03 2531,-89 2523.65,-76.12 2511.08,-66.52 2498.19,-59.55"/>
<polygon fill="#092b60" stroke="#092b60" points="2499.77,-56.42 2489.25,-55.17 2496.69,-62.71 2499.77,-56.42"/>
</g>
<!-- src/app/listCourse/page.tsx&#45;&gt;src/lib/page&#45;protection.ts -->
<g id="edge35" class="edge">
<title>src/app/listCourse/page.tsx-&gt;src/lib/page-protection.ts</title>
<path fill="none" stroke="#092b60" d="M950.64,-284.68C958.29,-275.66 968.89,-265.53 981,-260.6 998.82,-253.35 2349.82,-263.01 2366,-252.6 2403.06,-228.77 2418.65,-176.98 2424.96,-144.6"/>
<polygon fill="#092b60" stroke="#092b60" points="2428.35,-145.58 2426.63,-135.13 2421.45,-144.37 2428.35,-145.58"/>
</g>
<!-- src/app/listCourse/page.tsx&#45;&gt;src/components/StuffItem.tsx -->
<g id="edge34" class="edge">
<title>src/app/listCourse/page.tsx-&gt;src/components/StuffItem.tsx</title>
<path fill="none" stroke="#092b60" d="M950.64,-284.69C958.29,-275.68 968.9,-265.55 981,-260.6 1027.02,-241.77 1829.81,-271.02 1876,-252.6 1889.07,-247.39 1900.86,-237.39 1910.07,-227.67"/>
<polygon fill="#092b60" stroke="#092b60" points="1912.45,-230.27 1916.46,-220.46 1907.21,-225.63 1912.45,-230.27"/>
</g>
<!-- src/app/listSession/page.tsx -->
<g id="node25" class="node">
<title>src/app/listSession/page.tsx</title>
<polygon fill="none" stroke="black" points="992.87,-285.1 992.87,-321.1 1055.13,-321.1 1055.13,-285.1 992.87,-285.1"/>
<text text-anchor="middle" x="1024" y="-298.9" font-family="Times,serif" font-size="14.00">page.tsx</text>
</g>
<!-- src/app/listSession/page.tsx&#45;&gt;src/lib/authOptions.ts -->
<g id="edge40" class="edge">
<title>src/app/listSession/page.tsx-&gt;src/lib/authOptions.ts</title>
<path fill="none" stroke="#175aad" d="M1055.43,-302.2C1257.34,-302.7 2365.24,-303.13 2414,-252.6 2438.01,-227.72 2436.51,-201.04 2414,-174.8 2398.77,-157.05 2383.22,-176.62 2362,-166.8 2349.09,-160.82 2336.86,-151.09 2326.99,-141.76"/>
<polygon fill="#175aad" stroke="#175aad" points="2329.6,-139.42 2320.04,-134.85 2324.66,-144.38 2329.6,-139.42"/>
</g>
<!-- src/app/listSession/page.tsx&#45;&gt;src/lib/prisma.ts -->
<g id="edge37" class="edge">
<title>src/app/listSession/page.tsx-&gt;src/lib/prisma.ts</title>
<path fill="none" stroke="#175aad" d="M1055.54,-302.18C1252.44,-302.52 2308.85,-302.04 2443,-252.6 2524.75,-222.47 2597.73,-162.53 2551,-89 2539.35,-70.67 2518.16,-59.6 2498.54,-52.97"/>
<polygon fill="#175aad" stroke="#175aad" points="2499.61,-49.64 2489.02,-50.09 2497.58,-56.34 2499.61,-49.64"/>
</g>
<!-- src/app/listSession/page.tsx&#45;&gt;src/lib/page&#45;protection.ts -->
<g id="edge39" class="edge">
<title>src/app/listSession/page.tsx-&gt;src/lib/page-protection.ts</title>
<path fill="none" stroke="#175aad" d="M1055.41,-302.21C1258.46,-302.76 2378.53,-303.47 2428,-252.6 2455.32,-224.51 2447.67,-175.71 2438.88,-144.81"/>
<polygon fill="#175aad" stroke="#175aad" points="2442.27,-143.9 2435.98,-135.37 2435.58,-145.96 2442.27,-143.9"/>
</g>
<!-- src/app/listSession/page.tsx&#45;&gt;src/components/StuffItem.tsx -->
<g id="edge38" class="edge">
<title>src/app/listSession/page.tsx-&gt;src/components/StuffItem.tsx</title>
<path fill="none" stroke="#175aad" d="M1055.57,-301.53C1200.62,-298.74 1799.45,-285.32 1876,-252.6 1888.63,-247.2 1900.15,-237.51 1909.27,-228.06"/>
<polygon fill="#175aad" stroke="#175aad" points="1911.81,-230.47 1915.93,-220.7 1906.62,-225.77 1911.81,-230.47"/>
</g>
</g>
</svg>